<svg xmlns="http://www.w3.org/2000/svg" viewBox="0 0 32 32" width="32" height="32">
  <style>
    path {
      fill: #212529;
    }
    @media (prefers-color-scheme: dark) {
      path {
        fill: #ffffff;
      }
    }
  </style>
  <g transform="translate(4, 5) scale(0.75)">
    <path d="M16 28C15.6 28 15.2 27.85 14.9 27.6L5.2 19.2C4.8 18.9 4.5 18.5 4.2 18.1C2.5 15.9 1.5 13.2 1.5 10.5C1.5 8.2 2.3 6.1 3.8 4.6C5.3 3.1 7.4 2.3 9.7 2.3C11.7 2.3 13.6 3 15.1 4.3L16 5L16.9 4.3C18.4 3 20.3 2.3 22.3 2.3C24.6 2.3 26.7 3.1 28.2 4.6C29.7 6.1 30.5 8.2 30.5 10.5C30.5 13.2 29.5 15.9 27.8 18.1C27.5 18.5 27.2 18.9 26.8 19.2L17.1 27.6C16.8 27.85 16.4 28 16 28Z"/>
  </g>
</svg>
