<svg xmlns="http://www.w3.org/2000/svg" viewBox="0 0 32 32" width="32" height="32">
  <g transform="translate(5, 6) scale(0.7)">
    <path d="M16 28.5C15.5 28.5 15 28.3 14.6 28L4.8 19.5C4.4 19.2 4 18.8 3.7 18.3C2 16 1 13.2 1 10.3C1 7.9 1.9 5.6 3.5 4C5.1 2.4 7.4 1.5 9.8 1.5C12 1.5 14.1 2.3 15.7 3.8L16 4L16.3 3.8C17.9 2.3 20 1.5 22.2 1.5C24.6 1.5 26.9 2.4 28.5 4C30.1 5.6 31 7.9 31 10.3C31 13.2 30 16 28.3 18.3C28 18.8 27.6 19.2 27.2 19.5L17.4 28C17 28.3 16.5 28.5 16 28.5Z"
          fill="none"
          stroke="#212529"
          stroke-width="3"
          stroke-linecap="round"
          stroke-linejoin="round"/>
  </g>
</svg>
